name ./resultDataOpenSim/trcMotMarkerGrf/sub10/grf-04-04.mot
datacolumns 19
datarows 15
range 0.52000000 0.57600000
endheader

                time	     ground_force_vx	     ground_force_vy	     ground_force_vz	     ground_force_px	     ground_force_py	     ground_force_pz	   l_ground_force_vx	   l_ground_force_vy	   l_ground_force_vz	   l_ground_force_px	   l_ground_force_py	   l_ground_force_pz	     ground_torque_x	     ground_torque_y	     ground_torque_z	   l_ground_torque_x	   l_ground_torque_y	   l_ground_torque_z	
          0.52000000	         41.43024166	        471.44575031	        -14.67618923	         -0.79639370	          0.00000000	          0.02613542	          0.00000000	          0.00000000	          0.00000000	          0.00000000	          0.00000000	          0.00000000	          0.00000000	          2.38101068	          0.00000000	          0.00000000	          0.00000000	          0.00000000	
          0.52400000	         43.54625227	        472.79376484	        -15.00908666	         -0.79570230	          0.00000000	          0.02630154	          0.00000000	          0.00000000	          0.00000000	          0.00000000	          0.00000000	          0.00000000	          0.00000000	          2.36745260	          0.00000000	          0.00000000	          0.00000000	          0.00000000	
          0.52800000	         45.69327049	        474.26226986	        -15.32665089	         -0.79490821	          0.00000000	          0.02647992	          0.00000000	          0.00000000	          0.00000000	          0.00000000	          0.00000000	          0.00000000	          0.00000000	          2.36511328	          0.00000000	          0.00000000	          0.00000000	          0.00000000	
          0.53200000	         47.83324344	        475.91267770	        -15.60568151	         -0.79398188	          0.00000000	          0.02666944	          0.00000000	          0.00000000	          0.00000000	          0.00000000	          0.00000000	          0.00000000	          0.00000000	          2.37751242	          0.00000000	          0.00000000	          0.00000000	          0.00000000	
          0.53600000	         49.86210039	        477.82257000	        -15.82772731	         -0.79288847	          0.00000000	          0.02686705	          0.00000000	          0.00000000	          0.00000000	          0.00000000	          0.00000000	          0.00000000	          0.00000000	          2.40694843	          0.00000000	          0.00000000	          0.00000000	          0.00000000	
          0.54000000	         51.63977685	        480.08287904	        -15.98801541	         -0.79159734	          0.00000000	          0.02707184	          0.00000000	          0.00000000	          0.00000000	          0.00000000	          0.00000000	          0.00000000	          0.00000000	          2.45450182	          0.00000000	          0.00000000	          0.00000000	          0.00000000	
          0.54400000	         53.03444388	        482.79960438	        -16.10235331	         -0.79008926	          0.00000000	          0.02728564	          0.00000000	          0.00000000	          0.00000000	          0.00000000	          0.00000000	          0.00000000	          0.00000000	          2.52026779	          0.00000000	          0.00000000	          0.00000000	          0.00000000	
          0.54800000	         53.96354645	        486.08068571	        -16.20774304	         -0.78836784	          0.00000000	          0.02751078	          0.00000000	          0.00000000	          0.00000000	          0.00000000	          0.00000000	          0.00000000	          0.00000000	          2.60345901	          0.00000000	          0.00000000	          0.00000000	          0.00000000	
          0.55200000	         54.41890465	        490.01104709	        -16.35650839	         -0.78646024	          0.00000000	          0.02774686	          0.00000000	          0.00000000	          0.00000000	          0.00000000	          0.00000000	          0.00000000	          0.00000000	          2.70223490	          0.00000000	          0.00000000	          0.00000000	          0.00000000	
          0.55600000	         54.47395654	        494.63526105	        -16.60787884	         -0.78440655	          0.00000000	          0.02799449	          0.00000000	          0.00000000	          0.00000000	          0.00000000	          0.00000000	          0.00000000	          0.00000000	          2.81344124	          0.00000000	          0.00000000	          0.00000000	          0.00000000	
          0.56000000	         54.27460520	        499.95490341	        -17.01990015	         -0.78225045	          0.00000000	          0.02826110	          0.00000000	          0.00000000	          0.00000000	          0.00000000	          0.00000000	          0.00000000	          0.00000000	          2.93259284	          0.00000000	          0.00000000	          0.00000000	          0.00000000	
          0.56400000	         54.01409446	        505.94401465	        -17.64246511	         -0.78003600	          0.00000000	          0.02855771	          0.00000000	          0.00000000	          0.00000000	          0.00000000	          0.00000000	          0.00000000	          0.00000000	          3.05428191	          0.00000000	          0.00000000	          0.00000000	          0.00000000	
          0.56800000	         53.89592970	        512.57438972	        -18.51199734	         -0.77780933	          0.00000000	          0.02889148	          0.00000000	          0.00000000	          0.00000000	          0.00000000	          0.00000000	          0.00000000	          0.00000000	          3.17287151	          0.00000000	          0.00000000	          0.00000000	          0.00000000	
          0.57200000	         54.09350039	        519.82423866	        -19.64752317	         -0.77561684	          0.00000000	          0.02926327	          0.00000000	          0.00000000	          0.00000000	          0.00000000	          0.00000000	          0.00000000	          0.00000000	          3.28311531	          0.00000000	          0.00000000	          0.00000000	          0.00000000	
          0.57600000	         54.71650455	        527.65803580	        -21.04795946	         -0.77348825	          0.00000000	          0.02967060	          0.00000000	          0.00000000	          0.00000000	          0.00000000	          0.00000000	          0.00000000	          0.00000000	          3.38042692	          0.00000000	          0.00000000	          0.00000000	          0.00000000	
